<?xml version="1.0" encoding="UTF-8"?>
<svg id="Layer_1" data-name="Layer 1" xmlns="http://www.w3.org/2000/svg" viewBox="0 0 435.49 65.22">
  <path d="M0,56.22l9.48-11.42c4.45,3.58,10.06,6.1,14.71,6.1,5.03,0,7.16-1.65,7.16-4.45,0-3-3.19-3.97-8.52-6.1l-7.84-3.29c-6.77-2.71-12.68-8.42-12.68-17.52C2.32,8.81,12,0,25.74,0c7.16,0,15.1,2.71,20.9,8.42l-8.32,10.45c-4.26-3-7.94-4.55-12.58-4.55-4.06,0-6.58,1.45-6.58,4.26,0,3,3.58,4.06,9.29,6.29l7.65,3c7.84,3.1,12.29,8.52,12.29,17.23,0,10.65-8.9,20.13-24.58,20.13-7.94,0-17.03-2.9-23.81-9Z"/>
  <path d="M55.74,32.32C55.74,11.61,67.55,0,84.97,0s29.23,11.71,29.23,32.32-11.81,32.9-29.23,32.9-29.23-12.19-29.23-32.9ZM97.16,32.32c0-11.42-4.64-18-12.19-18s-12.19,6.58-12.19,18,4.65,18.58,12.19,18.58,12.19-7.16,12.19-18.58Z"/>
  <path d="M125.42,1.16h16.64v48.97h23.81v13.94h-40.45V1.16Z"/>
  <path d="M176.71,1.16h18.58c19.16,0,32.32,8.9,32.32,31.16s-13.16,31.74-31.35,31.74h-19.55V1.16ZM194.33,50.71c9.1,0,16.26-3.68,16.26-18.39s-7.16-17.81-16.26-17.81h-.97v36.19h.97Z"/>
  <path d="M255.49,32.32c0-20.71,11.81-32.32,29.22-32.32s29.23,11.71,29.23,32.32-11.81,32.9-29.23,32.9-29.22-12.19-29.22-32.9ZM296.91,32.32c0-11.42-4.64-18-12.19-18s-12.19,6.58-12.19,18,4.64,18.58,12.19,18.58,12.19-7.16,12.19-18.58Z"/>
  <path d="M324.78,33.68V1.16h16.65v34.45c0,11.23,2.9,15.29,9.48,15.29s9.68-4.06,9.68-15.29V1.16h16.06v32.52c0,21.48-8.13,31.55-25.74,31.55s-26.13-10.06-26.13-31.55Z"/>
  <path d="M402.2,15.1h-16.64V1.16h49.93v13.94h-16.65v48.97h-16.64V15.1Z"/>
</svg>